<svg width="16" height="16" viewBox="0 0 16 16" fill="none" xmlns="http://www.w3.org/2000/svg">
<path d="M13 0.0834961C11.3966 0.0834961 10.0834 1.39674 10.0834 3.00016C10.0834 3.24423 10.1661 3.46244 10.2233 3.68945L5.22742 6.18864C4.69134 5.53097 3.909 5.0835 3.00004 5.0835C1.39661 5.0835 0.083374 6.39674 0.083374 8.00016C0.083374 9.60359 1.39661 10.9168 3.00004 10.9168C3.909 10.9168 4.69134 10.4694 5.22742 9.81169L10.2233 12.3109C10.1661 12.5379 10.0834 12.7561 10.0834 13.0002C10.0834 14.6036 11.3966 15.9168 13 15.9168C14.6035 15.9168 15.9167 14.6036 15.9167 13.0002C15.9167 11.3967 14.6035 10.0835 13 10.0835C12.0911 10.0835 11.3087 10.531 10.7727 11.1886L5.77673 8.68945C5.83398 8.46244 5.91671 8.24423 5.91671 8.00016C5.91671 7.75609 5.83398 7.53789 5.77673 7.31087L10.7727 4.81169C11.3087 5.46936 12.0911 5.91683 13 5.91683C14.6035 5.91683 15.9167 4.60359 15.9167 3.00016C15.9167 1.39674 14.6035 0.0834961 13 0.0834961ZM13 1.3335C13.9279 1.3335 14.6667 2.07228 14.6667 3.00016C14.6667 3.92804 13.9279 4.66683 13 4.66683C12.0722 4.66683 11.3334 3.92804 11.3334 3.00016C11.3334 2.07228 12.0722 1.3335 13 1.3335ZM3.00004 6.3335C3.92792 6.3335 4.66671 7.07228 4.66671 8.00016C4.66671 8.92804 3.92792 9.66683 3.00004 9.66683C2.07216 9.66683 1.33337 8.92804 1.33337 8.00016C1.33337 7.07228 2.07216 6.3335 3.00004 6.3335ZM13 11.3335C13.9279 11.3335 14.6667 12.0723 14.6667 13.0002C14.6667 13.928 13.9279 14.6668 13 14.6668C12.0722 14.6668 11.3334 13.928 11.3334 13.0002C11.3334 12.0723 12.0722 11.3335 13 11.3335Z" fill="white"/>
</svg>
