<svg width="19" height="19" viewBox="0 0 19 19" fill="none" xmlns="http://www.w3.org/2000/svg">
<g clip-path="url(#clip0_85_583)">
<path d="M9.50003 18.9631C14.7263 18.9631 18.963 14.7263 18.963 9.50009C18.963 4.27383 14.7263 0.0371094 9.50003 0.0371094C4.27377 0.0371094 0.0370483 4.27383 0.0370483 9.50009C0.0370483 14.7263 4.27377 18.9631 9.50003 18.9631Z" fill="white" stroke="white" stroke-width="5"/>
<path d="M15.5954 6.0792C15.5954 6.0792 14.1718 6.72238 14.0073 8.03554C13.8429 9.34869 12.6138 10.6621 11.4095 11.0441C10.2274 11.4195 9.42469 12.4977 8.07594 11.8333C6.37302 10.9944 3.58205 9.63577 2.3866 9.95757C2.65487 9.64178 3.18794 9.15361 3.33094 8.76471C3.54297 8.17449 3.65153 7.79953 3.71885 7.34009C3.85799 6.39204 5.04174 4.52462 6.63318 3.56779C7.19639 3.23012 8.07661 2.15329 9.03921 2.36527C10.0629 2.5907 10.8466 1.91229 11.6705 2.37002C12.4944 2.82775 13.5078 4.097 13.8849 4.76675C14.4584 5.78536 15.5954 6.0792 15.5954 6.0792Z" fill="#95001A"/>
<path d="M13.841 6.73438C13.841 6.73438 13.3443 10.7219 10.6069 10.4824C7.86954 10.2429 8.77514 9.14287 3.66357 8.97072C3.66357 8.97072 5.0299 7.68907 7.75849 7.39771C10.4871 7.10635 13.841 6.73438 13.841 6.73438Z" fill="#780016"/>
<path d="M11.8727 3.5495C12.6638 4.46416 13.2968 6.12512 15.4881 6.08953C15.4881 6.08953 13.5755 6.63773 12.2079 5.62494C11.4314 5.04951 9.9749 4.78641 9.9749 4.78641L3.66347 8.97097L2.27313 9.96597C3.50975 8.92252 4.6291 7.92366 5.30293 6.68254C5.96905 5.456 6.79961 5.32565 8.00477 4.58093C9.01069 3.95933 9.15164 3.5354 9.31566 3.56564C11.1763 3.9087 11.2861 2.87124 11.8727 3.5495Z" fill="#69001F"/>
<path d="M14.8812 6.17177C14.2141 6.43912 14.0451 6.71461 13.7563 6.96223C12.8687 7.72268 12.2669 8.1564 11.5751 8.31505C10.2969 8.60791 8.61208 8.3654 6.02587 8.48953C4.74337 8.55128 3.99628 8.82571 3.48969 9.09974C3.48969 9.09974 5.17871 7.1728 6.70797 6.37719C8.12489 5.64011 8.59821 4.90519 9.54816 4.66351C10.2126 4.49447 10.3671 4.60522 11.1273 4.47201C11.461 4.41353 11.9096 4.91374 12.1119 5.07322C12.7836 5.60256 13.7443 6.16791 14.8812 6.17177Z" fill="#36000A"/>
<path d="M6.88923 10.8583C7.86836 11.7018 9.41907 12.4991 11.066 11.7753C12.713 11.0515 13.6388 9.89487 14.0086 8.60938C14.03 9.09068 13.9711 10.0844 13.118 11.1021C12.8328 11.4426 12.4122 11.932 11.5988 12.298C10.4374 12.8207 9.32774 12.707 9.08054 12.677C8.75488 12.6372 8.42943 12.558 7.44858 12.0847C5.48924 11.1392 5.04138 10.6124 3.66497 10.2297C3.20897 10.1041 2.74348 10.0159 2.27313 9.96605L2.85735 9.54798C2.85735 9.54798 5.91031 10.0147 6.88923 10.8583Z" fill="#69001F"/>
<path d="M15.4881 6.08887C15.4881 6.08887 14.1906 6.83603 13.02 8.20793C13.02 8.20793 13.7093 6.39674 14.5932 6.16133C14.5924 6.16133 15.3031 6.13432 15.4881 6.08887Z" fill="#810716"/>
<path d="M11.6952 2.01103C12.2625 2.30967 12.5574 2.42181 12.9462 2.98099C13.2313 3.39097 13.6087 4.18653 13.9217 4.7031C14.4646 5.59885 14.8982 5.66104 15.4817 6.08686C15.4817 6.08686 14.0268 5.96335 13.0152 3.94055C12.7511 3.41258 12.2564 2.71509 11.574 2.55625C11.2556 2.48216 10.8964 2.52529 10.5007 2.75755C9.72613 3.21219 9.31358 2.69118 8.75358 2.85427C8.17792 3.02192 8.12604 3.48387 7.18507 3.73471C4.11794 4.86285 4.8085 8.42586 2.27313 9.96587C2.27313 9.96608 3.0434 9.31087 3.39902 8.17225C3.97672 6.3226 4.50454 4.85807 6.08525 3.76768C6.71699 3.3319 7.21107 2.98341 8.3232 2.25803C8.73009 1.99264 9.57862 2.24536 10.1148 2.14733C11.2801 1.93425 11.1432 1.72046 11.6952 2.01103Z" fill="#B50018"/>
<path d="M10.4811 7.41749C10.4811 7.41749 7.13982 6.54216 4.4599 8.69595C4.4599 8.69595 9.44088 9.84785 8.58673 12.2793C6.845 17.2378 11.2339 17.4084 14.9707 13.583C16.4546 12.0638 16.491 8.81958 14.0389 6.60168C14.0389 6.60168 12.0434 5.95983 10.4811 7.41749Z" fill="#F21B4E"/>
<path d="M15.8642 10.5475C15.494 11.2902 13.4973 14.1206 11.3405 14.327C8.62266 14.5869 10.5432 10.915 8.60122 9.96588C6.65924 9.01676 5.51245 8.87097 5.51245 8.87097C5.51245 8.87097 5.93245 8.19414 6.96111 7.53981C8.84327 7.17985 10.481 7.41739 10.481 7.41739C11.4201 6.54139 12.4885 6.38445 13.2022 6.41575C13.4565 6.44662 13.6653 6.52539 13.9346 6.57127C15.2891 7.79609 15.8915 9.22644 15.8642 10.5475Z" fill="#FE677E"/>
<path d="M15.7558 12.192C15.7344 12.2491 15.7224 12.7677 15.0209 13.5341C10.4013 17.9547 6.89086 16.922 8.45593 12.3248C9.2867 9.88539 4.36871 8.72585 4.36871 8.72585C6.86639 6.48587 10.4804 7.41729 10.4804 7.41729C10.4963 7.40249 10.512 7.38834 10.5278 7.37441C10.5283 7.37759 10.5289 7.38074 10.5298 7.38384C10.68 7.47002 10.8255 7.56405 10.9658 7.66556L10.9214 7.51141L10.5375 7.36648L10.5291 7.37398C10.5397 7.36335 10.9045 6.90463 11.5896 6.60849C12.2864 6.3073 13.4953 6.20239 14.0894 6.63774C12.9716 6.24491 11.5765 6.83952 11.3247 7.94277L11.3106 7.93719C12.3397 8.82993 12.9668 10.1129 12.8098 11.3077C12.3199 10.0175 11.8678 9.1275 10.9517 8.0624C10.4318 7.89088 8.65917 7.35619 7.51195 7.60124C6.15506 7.89088 5.89864 8.91504 6.74443 9.48404C7.59021 10.053 8.67739 10.2466 8.8815 11.1951C9.0856 12.1436 8.51253 13.1515 8.43363 14.0541C8.34401 15.0795 8.66239 15.9641 9.71377 15.9836C11.4574 16.0153 14.392 14.3413 15.7558 12.192Z" fill="#B6044A"/>
<path d="M10.9662 7.66584C10.8259 7.56434 10.6804 7.4703 10.5302 7.38412C10.5293 7.38103 10.5287 7.37787 10.5283 7.37469L10.5366 7.36719L10.9214 7.5119L10.9662 7.66584Z" fill="#D33886"/>
<path d="M14.5343 7.40379C14.5742 7.46189 14.9968 8.08598 14.7871 8.21269C14.5993 8.32653 13.8817 8.0534 13.6562 7.58216C13.504 7.264 13.5679 6.83822 13.7593 6.7784C13.9919 6.70594 14.3832 7.18382 14.5343 7.40379Z" fill="#FFD6EE"/>
<path d="M10.9953 8.5757C11.7457 9.29971 12.0459 10.1712 11.9352 10.2165C11.9097 10.227 11.7273 10.0377 11.3632 9.65903C10.847 9.12197 10.7085 8.95732 10.5734 8.74057C10.5477 8.69897 10.2188 8.16599 10.3275 8.11068C10.4197 8.06372 10.7904 8.37781 10.9953 8.5757Z" fill="#FFD6EE"/>
<path d="M9.24945 14.9473C9.17891 15.0176 9.55538 15.3988 10.1175 15.4642C10.3733 15.4938 10.6799 15.4597 10.7019 15.4012C10.7127 15.3727 10.6591 15.3328 10.2058 15.1913C9.59526 15.0011 9.29061 14.9052 9.24945 14.9473Z" fill="#FFD6EE"/>
<path d="M9.06264 14.019C9.03734 14.1086 9.22945 14.197 9.30256 14.1655C9.34737 14.1459 9.35166 14.0797 9.33773 14.0388C9.32426 14.0047 9.29956 13.9762 9.2677 13.9581C9.23584 13.9399 9.19874 13.9332 9.16256 13.9391C9.11539 13.9489 9.07251 13.9841 9.06264 14.019Z" fill="#FFD6EE"/>
<path d="M9.23893 7.99636C9.21577 8.17623 8.67228 8.37755 8.21991 8.3709C7.78576 8.36447 7.33339 8.16466 7.3782 7.985C7.42108 7.81563 7.89489 7.68872 8.23192 7.66813C8.71881 7.63748 9.26294 7.80834 9.23893 7.99636Z" fill="#FFD6EE"/>
<path d="M12.6055 3.10007C12.8873 3.79101 12.5095 3.02998 12.1257 2.68638C11.7792 2.37619 11.2973 2.35765 11.383 2.25906C11.3981 2.22816 11.6625 2.22726 11.8668 2.30131C12.1765 2.41354 12.4655 2.75688 12.6055 3.10007Z" fill="#F79B7F"/>
<path d="M7.00283 5.13534C7.07166 5.17393 7.98422 4.58244 8.4098 4.278C8.86426 4.00808 8.87158 3.79636 9.12482 3.68574C9.23936 3.63571 9.33474 3.59231 9.70649 3.60662C9.41851 3.51104 9.29229 3.49897 9.23581 3.26322C9.17733 3.01909 8.80683 2.27514 8.58193 2.30301C8.35703 2.33088 8.43019 3.10319 7.99869 3.83944C7.54998 4.60506 6.92072 5.08946 7.00283 5.13534Z" fill="#B50018"/>
<path d="M8.41973 3.67962C8.36452 3.93256 8.33767 4.05903 8.37506 4.06957C8.47669 4.09792 8.90879 3.78852 8.89449 3.48841C8.88546 3.30046 8.70228 3.1371 8.59889 3.16345C8.57631 3.16947 8.52587 3.19281 8.41973 3.67962Z" fill="#F79B7F"/>
<path d="M4.69934 5.92352C4.33694 7.23834 4.8585 6.12124 5.2334 5.50445C5.61344 4.87921 6.57938 4.0995 5.88032 4.38022C5.4015 4.57249 4.79736 5.56788 4.69934 5.92352Z" fill="#F79B7F"/>
<path d="M9.75171 3.59288C10.6608 3.74322 11.2245 3.30688 11.6437 3.41612C11.9251 3.48944 12.058 3.90947 12.3567 4.16916C11.7531 3.55363 11.801 2.65493 11.4386 2.49399C11.0016 2.41901 11.6462 2.87737 11.0764 3.21602C10.807 3.49385 10.1243 3.58487 9.75171 3.59288Z" fill="#B50018"/>
<path d="M10.9548 3.09338C10.7902 3.2411 10.3821 3.44 10.4028 3.46599C10.4591 3.53642 11.1916 3.29384 11.3317 3.0787C11.5175 2.82456 11.3814 2.53713 11.2918 2.52012C11.0918 2.48213 11.2716 2.80901 10.9548 3.09338Z" fill="#F79B7F"/>
<path d="M8.52758 2.35557C8.48439 2.46332 8.97229 2.75216 9.33096 2.66264C9.47054 2.62782 9.66389 2.47984 9.6618 2.40213C9.65881 2.29632 9.20239 2.28157 8.99138 2.28245C8.84357 2.28307 8.56136 2.27158 8.52758 2.35557Z" fill="#F79B7F"/>
</g>
<defs>
<clipPath id="clip0_85_583">
<rect width="19" height="19" rx="9.5" fill="white"/>
</clipPath>
</defs>
</svg>
