<svg width="4" height="16" viewBox="0 0 4 16" fill="none" xmlns="http://www.w3.org/2000/svg">
<path d="M2.00004 12.1667C1.55801 12.1667 1.13409 12.3423 0.82153 12.6548C0.508969 12.9674 0.333374 13.3913 0.333374 13.8333C0.333374 14.2754 0.508969 14.6993 0.82153 15.0118C1.13409 15.3244 1.55801 15.5 2.00004 15.5C2.44207 15.5 2.86599 15.3244 3.17855 15.0118C3.49111 14.6993 3.66671 14.2754 3.66671 13.8333C3.66671 13.3913 3.49111 12.9674 3.17855 12.6548C2.86599 12.3423 2.44207 12.1667 2.00004 12.1667ZM2.00004 6.33333C1.55801 6.33333 1.13409 6.50893 0.82153 6.82149C0.508969 7.13405 0.333374 7.55797 0.333374 8C0.333374 8.44203 0.508969 8.86595 0.82153 9.17851C1.13409 9.49107 1.55801 9.66667 2.00004 9.66667C2.44207 9.66667 2.86599 9.49107 3.17855 9.17851C3.49111 8.86595 3.66671 8.44203 3.66671 8C3.66671 7.55797 3.49111 7.13405 3.17855 6.82149C2.86599 6.50893 2.44207 6.33333 2.00004 6.33333ZM2.00004 0.5C1.55801 0.5 1.13409 0.675595 0.82153 0.988155C0.508969 1.30072 0.333374 1.72464 0.333374 2.16667C0.333374 2.60869 0.508969 3.03262 0.82153 3.34518C1.13409 3.65774 1.55801 3.83333 2.00004 3.83333C2.44207 3.83333 2.86599 3.65774 3.17855 3.34518C3.49111 3.03262 3.66671 2.60869 3.66671 2.16667C3.66671 1.72464 3.49111 1.30072 3.17855 0.988155C2.86599 0.675595 2.44207 0.5 2.00004 0.5Z" fill="white"/>
</svg>
