<svg width="39" height="37" viewBox="0 0 39 37" fill="none" xmlns="http://www.w3.org/2000/svg">
<path d="M23.3863 7.96459C23.3863 7.96459 20.9539 9.06358 20.6729 11.3073C20.392 13.5511 18.2918 15.7952 16.2341 16.448C14.2142 17.0895 12.8427 18.9318 10.5381 17.7965C7.62833 16.3631 2.85946 14.0416 0.816811 14.5915C1.2752 14.0519 2.18605 13.2178 2.43038 12.5533C2.79268 11.5448 2.97817 10.9041 3.0932 10.119C3.33094 8.49913 5.35361 5.30831 8.07287 3.67338C9.03521 3.09642 10.5392 1.25647 12.184 1.61867C13.9332 2.00386 15.2723 0.844675 16.6801 1.62679C18.0879 2.4089 19.8193 4.57764 20.4636 5.72203C21.4436 7.46251 23.3863 7.96459 23.3863 7.96459Z" fill="#95001A"/>
<path d="M20.3886 9.08447C20.3886 9.08447 19.5398 15.8978 14.8626 15.4887C10.1853 15.0795 11.7326 13.1998 2.99862 12.9057C2.99862 12.9057 5.33323 10.7157 9.99551 10.2179C14.6578 9.72005 20.3886 9.08447 20.3886 9.08447Z" fill="#780016"/>
<path d="M17.0257 3.6417C18.3774 5.20457 19.459 8.04261 23.2033 7.9818C23.2033 7.9818 19.9352 8.9185 17.5984 7.18796C16.2716 6.20473 13.7829 5.75519 13.7829 5.75519L2.99874 12.9053L0.6231 14.6054C2.73609 12.8225 4.64869 11.1157 5.80006 8.99506C6.93825 6.89929 8.35739 6.67658 10.4166 5.40409C12.1354 4.34197 12.3763 3.61761 12.6565 3.66928C15.8358 4.25547 16.0234 2.48278 17.0257 3.6417Z" fill="#69001F"/>
<path d="M22.1661 8.12287C21.0261 8.57969 20.7375 9.05042 20.244 9.47353C18.7274 10.7729 17.6991 11.514 16.517 11.7851C14.3329 12.2855 11.4541 11.8711 7.03512 12.0832C4.84374 12.1887 3.56721 12.6576 2.70159 13.1259C2.70159 13.1259 5.58761 9.83333 8.20063 8.47388C10.6217 7.21444 11.4304 5.95869 13.0536 5.54573C14.1889 5.2569 14.4529 5.44613 15.7518 5.21853C16.3221 5.1186 17.0885 5.9733 17.4343 6.2458C18.582 7.15027 20.2235 8.11628 22.1661 8.12287Z" fill="#36000A"/>
<path d="M8.51053 16.1299C10.1835 17.571 12.8332 18.9334 15.6473 17.6967C18.4615 16.46 20.0433 14.4836 20.6752 12.2871C20.7118 13.1095 20.6111 14.8074 19.1535 16.5464C18.6663 17.1281 17.9475 17.9645 16.5577 18.5898C14.5733 19.4829 12.6772 19.2887 12.2548 19.2375C11.6983 19.1693 11.1422 19.0341 9.46628 18.2253C6.1184 16.6098 5.35314 15.7097 3.00131 15.0558C2.22215 14.8412 1.42677 14.6905 0.6231 14.6052L1.62135 13.8909C1.62135 13.8909 6.83787 14.6884 8.51053 16.1299Z" fill="#69001F"/>
<path d="M23.2033 7.98145C23.2033 7.98145 20.9863 9.2581 18.9861 11.6022C18.9861 11.6022 20.1638 8.50749 21.6742 8.10526C21.6728 8.10526 22.8871 8.05911 23.2033 7.98145Z" fill="#810716"/>
<path d="M16.7224 1.0131C17.6918 1.52337 18.1956 1.71498 18.86 2.67045C19.347 3.37097 19.992 4.73032 20.5268 5.61298C21.4543 7.14352 22.1953 7.24979 23.1923 7.97738C23.1923 7.97738 20.7063 7.76634 18.9778 4.31003C18.5267 3.4079 17.6813 2.2161 16.5152 1.94471C15.9713 1.8181 15.3575 1.8918 14.6814 2.28865C13.3579 3.06549 12.653 2.17525 11.6961 2.45392C10.7125 2.74038 10.6238 3.5297 9.01602 3.9583C3.77529 5.88594 4.95523 11.974 0.6231 14.6054C0.6231 14.6057 1.93925 13.4862 2.54688 11.5407C3.53398 8.38019 4.43585 5.87778 7.13678 4.01465C8.21623 3.27003 9.06045 2.67458 10.9607 1.43514C11.656 0.981674 13.1058 1.4135 14.022 1.24598C16.0131 0.881903 15.7793 0.516602 16.7224 1.0131Z" fill="#B50018"/>
<path d="M14.6477 10.2506C14.6477 10.2506 8.93856 8.75499 4.35944 12.4351C4.35944 12.4351 12.8703 14.4033 11.4109 18.5579C8.4348 27.0303 15.9339 27.3219 22.319 20.7855C24.8544 18.1897 24.9166 12.6464 20.7269 8.8567C20.7269 8.8567 17.3172 7.75998 14.6477 10.2506Z" fill="#F21B4E"/>
<path d="M23.8457 15.5993C23.213 16.8683 19.8014 21.7045 16.1161 22.0573C11.4722 22.5013 14.7537 16.2272 11.4355 14.6055C8.11732 12.9837 6.15783 12.7346 6.15783 12.7346C6.15783 12.7346 6.87547 11.5781 8.63312 10.4601C11.8491 9.84502 14.6475 10.2509 14.6475 10.2509C16.252 8.7541 18.0776 8.48594 19.2971 8.53943C19.7316 8.59218 20.0885 8.72676 20.5486 8.80516C22.863 10.898 23.8922 13.342 23.8457 15.5993Z" fill="#FE677E"/>
<path d="M23.6608 18.4096C23.6241 18.507 23.6036 19.3932 22.405 20.7028C14.5117 28.2561 8.51343 26.4915 11.1876 18.6363C12.6072 14.4682 4.2039 12.487 4.2039 12.487C8.47163 8.65957 14.6469 10.2511 14.6469 10.2511C14.674 10.2258 14.7007 10.2016 14.7278 10.1778C14.7286 10.1832 14.7297 10.1886 14.7311 10.1939C14.9878 10.3412 15.2365 10.5018 15.4762 10.6753L15.4004 10.4119L14.7443 10.1642L14.73 10.1771C14.7482 10.1589 15.3714 9.37509 16.542 8.86909C17.7326 8.35444 19.7983 8.17519 20.8135 8.91907C18.9035 8.24784 16.5197 9.26383 16.0895 11.1489L16.0653 11.1394C17.8237 12.6648 18.8952 14.8569 18.627 16.8985C17.79 14.6939 17.0174 13.1733 15.4521 11.3533C14.5637 11.0603 11.5349 10.1466 9.57468 10.5654C7.25619 11.0603 6.81806 12.8102 8.26322 13.7825C9.70839 14.7547 11.566 15.0855 11.9148 16.7061C12.2635 18.3268 11.2843 20.0489 11.1495 21.5911C10.9964 23.3433 11.5404 24.8548 13.3369 24.8881C16.3162 24.9423 21.3305 22.082 23.6608 18.4096Z" fill="#B6044A"/>
<path d="M15.477 10.6753C15.2373 10.5019 14.9886 10.3412 14.7319 10.194C14.7305 10.1887 14.7294 10.1833 14.7286 10.1779L14.7429 10.165L15.4005 10.4123L15.477 10.6753Z" fill="#D33886"/>
<path d="M21.5735 10.2282C21.6417 10.3275 22.3637 11.3939 22.0054 11.6104C21.6845 11.8049 20.4584 11.3382 20.0731 10.533C19.813 9.98936 19.9221 9.26183 20.2493 9.15963C20.6467 9.03581 21.3153 9.85235 21.5735 10.2282Z" fill="#FFD6EE"/>
<path d="M15.5264 12.2299C16.8085 13.467 17.3214 14.9561 17.1324 15.0334C17.0888 15.0514 16.777 14.7279 16.155 14.081C15.2729 13.1633 15.0362 12.882 14.8054 12.5116C14.7615 12.4405 14.1995 11.5298 14.3853 11.4353C14.5428 11.3551 15.1762 11.8918 15.5264 12.2299Z" fill="#FFD6EE"/>
<path d="M12.5431 23.1163C12.4226 23.2365 13.0659 23.8878 14.0264 23.9995C14.4634 24.0501 14.9873 23.9918 15.025 23.8918C15.0433 23.8431 14.9517 23.7749 14.1773 23.5332C13.134 23.2082 12.6134 23.0445 12.5431 23.1163Z" fill="#FFD6EE"/>
<path d="M12.2243 21.5313C12.1811 21.6844 12.5093 21.8353 12.6342 21.7815C12.7108 21.7481 12.7181 21.6349 12.6943 21.565C12.6713 21.5067 12.6291 21.4581 12.5747 21.4271C12.5202 21.3961 12.4569 21.3846 12.395 21.3946C12.3144 21.4115 12.2412 21.4716 12.2243 21.5313Z" fill="#FFD6EE"/>
<path d="M12.5254 11.2413C12.4858 11.5486 11.5572 11.8926 10.7842 11.8813C10.0424 11.8703 9.26946 11.5289 9.34603 11.2219C9.41929 10.9325 10.2289 10.7156 10.8048 10.6804C11.6367 10.6281 12.5664 10.92 12.5254 11.2413Z" fill="#FFD6EE"/>
<path d="M18.2773 2.87418C18.7589 4.05476 18.1135 2.75441 17.4576 2.16731C16.8655 1.63729 16.0422 1.60561 16.1887 1.43715C16.2144 1.38437 16.6662 1.38283 17.0153 1.50935C17.5444 1.70111 18.0381 2.28777 18.2773 2.87418Z" fill="#F79B7F"/>
<path d="M8.70491 6.35159C8.8225 6.41753 10.3818 5.40686 11.1089 4.88668C11.8855 4.42546 11.898 4.0637 12.3307 3.87469C12.5264 3.78921 12.6894 3.71504 13.3246 3.7395C12.8325 3.57618 12.6168 3.55555 12.5203 3.15274C12.4204 2.73561 11.7873 1.46442 11.4031 1.51205C11.0188 1.55967 11.1438 2.87929 10.4065 4.13731C9.63981 5.44551 8.5646 6.2732 8.70491 6.35159Z" fill="#B50018"/>
<path d="M11.1258 3.86333C11.0315 4.29552 10.9856 4.51162 11.0495 4.52963C11.2231 4.57808 11.9615 4.04941 11.937 3.53661C11.9216 3.21546 11.6086 2.93633 11.4319 2.98135C11.3933 2.99164 11.3072 3.03152 11.1258 3.86333Z" fill="#F79B7F"/>
<path d="M4.76869 7.69716C4.14947 9.94378 5.04064 8.035 5.68122 6.98111C6.33058 5.91278 7.98103 4.58051 6.78658 5.06017C5.96845 5.3887 4.93618 7.0895 4.76869 7.69716Z" fill="#F79B7F"/>
<path d="M13.4013 3.71676C14.9546 3.97365 15.9179 3.22809 16.6341 3.41474C17.1149 3.54002 17.3421 4.25771 17.8525 4.70144C16.8212 3.64969 16.903 2.11411 16.2837 1.83912C15.5371 1.71101 16.6384 2.49419 15.6648 3.07283C15.2046 3.54755 14.038 3.70307 13.4013 3.71676Z" fill="#B50018"/>
<path d="M15.4572 2.86164C15.1759 3.11405 14.4786 3.45391 14.5139 3.49831C14.6101 3.61865 15.8618 3.20418 16.1011 2.83656C16.4185 2.40232 16.186 1.91119 16.033 1.88212C15.6912 1.81721 15.9985 2.37576 15.4572 2.86164Z" fill="#F79B7F"/>
<path d="M11.3098 1.60285C11.236 1.78696 12.0697 2.28049 12.6826 2.12753C12.9211 2.06804 13.2514 1.8152 13.2478 1.68242C13.2427 1.50162 12.4629 1.47642 12.1023 1.47792C11.8498 1.47897 11.3675 1.45934 11.3098 1.60285Z" fill="#F79B7F"/>
<path d="M11.2371 24.7512L11.2565 24.7684L12.0056 25.4315V19.6571L16.0653 18.2793V31.4067L13.7321 32.1983L10.5487 28.9259L9.03031 27.3657V33.7937L4.16839 35.4433V22.3162L7.28988 21.2572L10.489 24.0893L11.2371 24.7512Z" fill="#610300"/>
<path d="M20.8089 16.6696L23.1062 15.8904L24.8275 15.3062V19.224L23.1062 19.808L20.8089 20.5875L20.7932 20.593V21.5323L20.8089 21.5268L23.1062 20.7476V24.6651L20.8089 25.4447L20.7932 25.4498V29.8022L16.8581 31.0913V18.0104L19.0722 17.2591L20.7932 16.6751L20.8089 16.6696Z" fill="#610300"/>
<path d="M25.6045 15.0425L29.5554 13.7022L33.5059 12.3618H33.5063L37.4567 11.021V14.9389L33.5063 16.2793H33.5059V25.4279L33.5063 25.4276V25.4741L29.5554 26.8215V17.62L25.6045 18.9604V15.0425Z" fill="#610300"/>
<path d="M4.18671 35.4353V22.3574L5.24907 23.3062V36.3838L4.18671 35.4353Z" fill="black"/>
<path d="M4.20475 22.3981L5.23047 23.3139V36.3424L4.20475 35.4266V22.3981ZM4.16812 22.3164V35.4434L5.26711 36.4248V23.2978L4.16812 22.3164Z" fill="#231F20"/>
<path d="M4.20408 22.3232L7.28564 21.2773L8.35313 22.2309L5.27156 23.2768L4.20408 22.3232Z" fill="black"/>
<path d="M7.28119 21.2986L8.31901 22.2239L5.27847 23.2563L4.24249 22.3309L7.28302 21.2986H7.28119ZM7.29145 21.2568L4.16812 22.3177L5.26711 23.2991L8.38861 22.2401L7.28962 21.2583L7.29145 21.2568Z" fill="#231F20"/>
<path d="M12.0239 25.4231V19.6978L13.0863 20.6465V26.3719L12.0239 25.4231Z" fill="black"/>
<path d="M12.042 19.7388L13.0677 20.6546V26.3309L12.042 25.4151V19.7388ZM12.0054 19.6567V25.4316L13.1043 26.413V20.6385L12.0054 19.6567Z" fill="#231F20"/>
<path d="M13.7442 32.1845L10.1359 28.4754L10.1439 28.3882L14.4538 32.8182L13.7442 32.1845Z" fill="black"/>
<path d="M10.1582 28.4296L14.078 32.457L13.7585 32.1716L10.1557 28.4688L10.1593 28.4296H10.1582ZM10.13 28.3472L10.1176 28.4823L13.7329 32.1984L14.8319 33.1798L10.1289 28.3472H10.13Z" fill="black"/>
<path d="M16.8764 31.0827V18.0513L17.9387 19.0001V32.0315L16.8764 31.0827Z" fill="black"/>
<path d="M16.8944 18.0919L17.9201 19.0078V31.9901L16.8944 31.0743V18.0919ZM16.8578 18.0103V31.0908L17.9568 32.0725V18.9916L16.8578 18.0103Z" fill="#231F20"/>
<path d="M20.8286 21.5393L23.1017 20.7686L24.1691 21.7217L21.8961 22.4929L20.8286 21.5393Z" fill="black"/>
<path d="M23.0975 20.7891L24.1338 21.7144L21.8992 22.472L20.8643 21.5485L23.0989 20.7909L23.0975 20.7891ZM23.1074 20.7495L20.7944 21.5338L21.8934 22.5156L24.2064 21.7309L23.1074 20.7495Z" fill="black"/>
<path d="M30.6357 27.7798C30.513 27.7241 29.9334 27.172 29.5733 26.8137V17.6606L30.6357 18.6094V27.7798Z" fill="black"/>
<path d="M29.5916 17.7021L30.6173 18.6179V27.7486C30.4708 27.6545 30.0044 27.2171 29.5916 26.8064V17.7021ZM29.5549 17.62V26.8211C29.5549 26.8211 30.5404 27.8029 30.6517 27.8029H30.6539V18.6014L29.5549 17.6196V17.62Z" fill="#231F20"/>
<path d="M25.6228 18.9523V15.0835L26.6851 16.0323V19.9011L25.6228 18.9523Z" fill="black"/>
<path d="M25.6409 15.1242L26.6666 16.04V19.86L25.6409 18.9442V15.1242ZM25.6043 15.0425V18.9622L26.7033 19.9436V16.0239L25.6043 15.0425Z" fill="#231F20"/>
<path d="M25.6401 15.0495L37.4524 11.0415L38.5202 11.9947L26.7075 16.0031L25.6401 15.0495Z" fill="black"/>
<path d="M37.448 11.0624L38.4844 11.9874L26.7117 15.9804L25.6757 15.0572L37.448 11.0642V11.0624ZM37.4564 11.0228L25.6043 15.0426L26.7032 16.024L38.5554 12.0024L37.4564 11.021V11.0228Z" fill="#231F20"/>
<path d="M12.0413 19.6645L16.0611 18.3003L17.1289 19.2535L13.1088 20.6177L12.0413 19.6645Z" fill="black"/>
<path d="M16.0566 18.3209L17.0929 19.2463L13.1128 20.5962L12.0768 19.6709L16.0566 18.3202V18.3209ZM16.065 18.2788L12.0054 19.6562L13.1043 20.638L17.164 19.2602L16.065 18.2788Z" fill="#231F20"/>
<path d="M16.8937 18.0178L24.8233 15.3271L25.8912 16.2803L17.9612 18.971L16.8937 18.0178Z" fill="black"/>
<path d="M24.8189 15.3475L25.8552 16.2733L17.9652 18.95L16.9278 18.0247L24.8174 15.3475H24.8189ZM24.8258 15.3062L16.8578 18.0104L17.9568 18.9918L25.9263 16.2875L24.8273 15.3062H24.8258Z" fill="#231F20"/>
<path d="M12.3361 25.7327L12.3555 25.7499L13.1047 26.413V20.6385L17.1643 19.2607V32.3882L14.8312 33.1798L11.6478 29.9077L10.1294 28.3472V34.7752L5.26745 36.4247V23.2977L8.38894 22.2386L11.5881 25.0707L12.3361 25.7327Z" fill="white"/>
<path d="M21.9081 17.6511L24.2053 16.8719L25.9267 16.2876V20.2055L24.2053 20.7894L21.9081 21.5693L21.8923 21.5745V22.5137L21.9081 22.5086L24.2053 21.729V25.6466L21.9081 26.4261L21.8923 26.4312V30.7836L17.9572 32.0727V18.9918L20.1713 18.2409L21.8923 17.6566L21.9081 17.6511Z" fill="white"/>
<path d="M26.7036 16.024L30.6544 14.684L34.6049 13.3432H34.6053L38.5558 12.0024V15.9203L34.6053 17.2607H34.6049V26.4094L34.6053 26.4091V26.4556L30.6544 27.803V18.6015L26.7036 19.9419V16.024Z" fill="white"/>
</svg>
